<svg
  xmlns="http://www.w3.org/2000/svg"
  viewBox="0 0 96 96"
  role="img"
  aria-labelledby="unc-games-logo-title"
>
  <title id="unc-games-logo-title">Unc Games logo</title>
  <rect x="5" y="5" width="86" height="86" rx="20" fill="#0d2430" stroke="#d8b26e" stroke-width="2" />
  <path d="M15 81L81 15v66z" fill="#123645" opacity="0.7" />
  <path
    d="M24 36c1-14 12-23 25-23 14 0 25 9 26 23-6-5-12-5-17-1-5-7-14-7-19 0-5-4-10-4-15 1z"
    fill="#ed755d"
  />
  <circle cx="23" cy="50" r="7" fill="#f0cfa1" />
  <circle cx="73" cy="50" r="7" fill="#f0cfa1" />
  <path d="M24 43c0-17 49-17 49 0v9c0 17-10 27-24 27S24 69 24 52z" fill="#f6efe4" />
  <path d="M31 20c8-8 29-8 37 0l-4 12H35z" fill="#7bd0c3" />
  <text
    x="48"
    y="30"
    text-anchor="middle"
    font-family="Sora, sans-serif"
    font-size="9"
    font-weight="700"
    fill="#072126"
  >
    UG
  </text>
  <path d="M29 42c5-5 13-5 18-1" fill="none" stroke="#0d2430" stroke-linecap="round" stroke-width="2" />
  <path d="M51 41c5-4 13-4 18 1" fill="none" stroke="#0d2430" stroke-linecap="round" stroke-width="2" />
  <circle cx="38" cy="50" r="10.2" fill="none" stroke="#0d2430" stroke-width="2" />
  <circle cx="60" cy="50" r="10.2" fill="none" stroke="#0d2430" stroke-width="2" />
  <path d="M18 49h10M70 49h8" fill="none" stroke="#0d2430" stroke-linecap="round" stroke-width="2" />
  <circle cx="38" cy="50" r="3" fill="#0d2430" />
  <circle cx="60" cy="50" r="3" fill="#0d2430" />
  <path
    d="M35 62c6-6 13-4 14 2 2-6 10-8 16-2-3 8-12 9-16 3-4 6-13 5-14-3z"
    fill="#ed755d"
    stroke="#0d2430"
    stroke-width="1.5"
  />
  <path
    d="M27 75c4-6 11-8 21-5 10-3 17-1 21 5 2 4-1 9-6 8l-8-3H41l-8 3c-5 1-8-4-6-8z"
    fill="#7bd0c3"
    stroke="#0d2430"
    stroke-width="1.5"
  />
  <path d="M37 73v7m-4-3h8" fill="none" stroke="#0d2430" stroke-linecap="round" stroke-width="2" />
  <circle cx="57" cy="76" r="2.8" fill="#ed755d" />
  <circle cx="64" cy="74" r="2.8" fill="#d8b26e" />
</svg>
